<?xml version="1.0" standalone="no"?><!DOCTYPE svg PUBLIC "-//W3C//DTD SVG 1.1//EN" "http://www.w3.org/Graphics/SVG/1.1/DTD/svg11.dtd"><svg t="1559982571414" class="icon" style="" viewBox="0 0 1024 1024" version="1.1" xmlns="http://www.w3.org/2000/svg" p-id="1242" xmlns:xlink="http://www.w3.org/1999/xlink" width="32" height="32"><defs><style type="text/css"></style></defs><path d="M904.201247 1017.226402H113.025156c-62.163836 0-113.025156-50.86132-113.025156-113.025155V113.025156C0 50.86132 50.86132 0 113.025156 0h791.176091c62.163836 0 113.025156 50.86132 113.025155 113.025156v791.176091c0 62.163836-50.86132 113.025156-113.025155 113.025155z" fill="#161614" p-id="1243"></path><path d="M570.777037 791.176091H463.403139c-16.953773 0-33.907547 0-45.210062-5.651258-5.651258 0-16.953773 0-22.605032-5.651258-124.327671-28.256289-214.747796-141.281445-214.747796-271.260374V401.239303c0-158.235218 129.978929-282.56289 282.56289-282.562889H565.125779c158.235218 0 282.56289 129.978929 282.56289 282.562889V508.613201c5.651258 152.58396-124.327671 282.56289-276.911632 282.56289z" fill="#FFFFFF" p-id="1244"></path><path d="M124.327671 740.314771s33.907547 45.210062 33.907547 50.86132 73.466351 101.72264 73.466351 101.72264l124.327672 22.605031 16.953773 45.210062-16.953773 56.512578h288.214147c39.558805 0 62.163836-16.953773 73.466351-39.558804 39.558805-90.420125-67.815093-186.491507-67.815093-186.491507l-16.953773-22.605031 118.676413-28.256289 101.72264-113.025156V435.14685l-28.256288-39.558805-28.256289-28.256289V271.260374l-16.953774-33.907547-5.651258-11.302515-141.281444 50.86132L395.588045 265.609116l-118.676413-33.907547h-45.210063l-28.256289 135.630187-11.302515 96.071383-67.815094 276.911632z" fill="#FFFFFF" p-id="1245"></path><path d="M508.613201 33.907547C231.701569 33.907547 5.651258 259.957858 5.651258 536.86949c0 220.399054 146.932703 412.541819 344.726725 480.356912 22.605031 5.651258 33.907547-11.302516 33.907547-22.605031v-96.071382c-141.281445 28.256289-169.537734-62.163836-169.537734-62.163836-22.605031-56.512578-56.512578-73.466351-56.512578-73.466351-45.210062-28.256289 5.651258-28.256289 5.651258-28.256289 50.86132 5.651258 79.117609 50.86132 79.117609 50.86132 45.210062 79.117609 118.676414 56.512578 146.932703 39.558805 5.651258-33.907547 16.953773-56.512578 33.907546-67.815094-113.025156-11.302516-231.701569-56.512578-231.701569-248.655343 0-56.512578 16.953773-101.72264 50.86132-135.630187-5.651258-11.302516-22.605031-62.163836 0-129.978929 0 0 45.210062-11.302516 141.281445 50.86132 39.558805-11.302516 84.768867-16.953773 124.327671-16.953773 45.210062 0 84.768867 5.651258 124.327672 16.953773 101.72264-67.815093 141.281445-50.86132 141.281444-50.86132 28.256289 67.815093 11.302516 118.676414 5.651258 135.630187 33.907547 33.907547 50.86132 79.117609 50.86132 135.630187 0 192.142765-118.676414 237.352827-231.701569 248.655343 16.953773 16.953773 33.907547 45.210062 33.907547 96.071382v141.281445c0 11.302516 11.302516 28.256289 33.907546 22.605031 197.794023-67.815093 344.726725-254.306601 344.726726-480.356912 5.651258-282.56289-220.399054-508.613201-502.961944-508.613201" fill="#161614" p-id="1246"></path><path d="M197.794023 751.617286s-5.651258 5.651258-11.302516 0c-5.651258 0-5.651258-5.651258-5.651258-5.651258s5.651258-5.651258 11.302516 0l5.651258 5.651258m22.605031 22.605031h-11.302516c-5.651258-5.651258-5.651258-5.651258 0-11.302515h11.302516v11.302515m16.953773 28.256289c-5.651258 0-5.651258 0-11.302515-5.651257s-5.651258-11.302516 0-11.302516 5.651258 0 11.302515 5.651258 5.651258 11.302516 0 11.302515m28.256289 33.907547c0 5.651258-11.302516 0-11.302515 0-5.651258-5.651258-5.651258-11.302516-5.651258-11.302515 0-5.651258 11.302516 0 11.302515 0 5.651258 0 11.302516 5.651258 5.651258 11.302515m39.558805 11.302516c0 5.651258-5.651258 5.651258-11.302516 5.651257-11.302516-5.651258-11.302516-11.302516-11.302515-11.302515 0-5.651258 5.651258-5.651258 11.302515-5.651258s11.302516 5.651258 11.302516 11.302516m39.558804 5.651257c0 5.651258-5.651258 5.651258-11.302515 5.651258s-11.302516-5.651258-11.302516-5.651258c0-5.651258 5.651258-5.651258 11.302516-5.651257 5.651258-5.651258 11.302516 0 11.302515 5.651257m45.210063-5.651257c0 5.651258-5.651258 5.651258-11.302516 11.302515-5.651258 0-11.302516 0-11.302516-5.651258s5.651258-5.651258 11.302516-11.302515c0 0 5.651258 5.651258 11.302516 5.651258" fill="#161614" p-id="1247"></path></svg>